<svg
   width="250px"
   height="250px"
   viewBox="0 0 903.49829 1013.9094"
   version="1.1"
   id="svg5"
   inkscape:version="1.1 (ce6663b3b7, 2021-05-25)"
   sodipodi:docname="tq-logo.svg"
   xmlns:inkscape="http://www.inkscape.org/namespaces/inkscape"
   xmlns:sodipodi="http://sodipodi.sourceforge.net/DTD/sodipodi-0.dtd"
   xmlns="http://www.w3.org/2000/svg"
   xmlns:svg="http://www.w3.org/2000/svg">

  <defs
     id="defs2" />
  <g
     inkscape:label="Layer 1"
     inkscape:groupmode="layer"
     id="layer1"
     transform="translate(450.0928,-56.703211)">
    <g
       id="tq-logo"
       transform="translate(-124.44442,84.958354)">
      <path
         style="fill:#fbdc6f;stroke:#000000;stroke-width:0.264583px;stroke-linecap:butt;stroke-linejoin:miter;stroke-opacity:1"
         d="m -61.198409,-28.092213 c -7.58837,-0.299196 -13.60983,1.583085 -16.08398,6.107422 -13.91414,9.104107 -5.54976,37.596981 0,50 7.47082,29.43714 24.93366,57.17924 30,80.000001 -15.03635,19.05608 -69.999961,40.00004 -90.000001,50 -50.00001,20 -150.00048,39.99987 -179.13867,59.08789 -12.29727,6.86622 -11.66844,33.7568 -0.86133,50.91211 9.99999,9.99999 40.00002,20.00001 60,10 19.99999,-1e-5 119.99999,-50.00002 165.000001,-80 21.24483,-14.06874 54.99992,-39.9991 63.10156,-46.07812 l 0.45899,-0.22071 c 9.70523,20.9009 18.9631598,42.03987 27.89647977,63.35156 C -75.470179,241.76986 -138.30207,281.26416 -189.2902,333.58552 c -72.22358,73.41918 -100.89713,157.92457 -86.02149,253.51563 14.68973,94.39619 66.06235,163.6622 154.11914,207.79687 88.760341,43.38569 227.98154,49.62507 351.4375,26.1211 0.11962,-0.0228 0.23401,-0.0475 0.35352,-0.0703 9.42653,19.22445 36.80695,78.30554 47.11915,97.06639 27.5879,60.0488 80,80 145,60 30,-10 60.00001,-40 75.00001,-60 30,-39.99999 79.99999,-159.99999 79.99999,-179.99999 -5,-45 -15,-15 -24.00978,4.30858 -23.15734,47.32536 -51.79677,96.97204 -87.06054,134.3418 -9.19102,10.23284 -33.9293,36.34865 -63.45508,40.67383 -65.4746,10.67578 -102.26348,-58.92794 -123.24414,-107.86719 91.43206,-25.49684 146.59073,-67.6924 206.83984,-131.24805 70.44465,-74.31087 98.36829,-158.36533 83.77149,-252.16406 -14.87573,-95.59105 -68.77835,-165.29681 -161.70703,-209.11914 -88.48143,-41.59334 -192.05936,-51.09415 -310.736329,-28.5 -16.42758,3.12754 -32.39133,6.75859 -47.92383,10.85547 -10.22598,-29.55734 -19.6376,-57.27098 -27.47461,-81.28125 6.42535,-4.53796 10.55495,-7.31055 13.75781,-9.39062 -0.0119,-0.005 -0.0335,0.002 -0.0449,-0.004 1.37307,-0.65943 86.181729,-61.855931 116.287099,-65.605381 20,-5 36.87798,-5.93831 61.10157,-4.29306 4.33762,0.83401 6.24212,0.89227 7.15821,0.45313 0.0733,0.93598 1.73094,4.02651 6.42968,9.54296 13.41268,13.96403 65.39178,23.03468 54.26953,7.97266 C 232.24914,-6.0451991 172.71746,8.0161549 136.45784,13.083568 c -8.91851,1.361976 -16.31951,3.938793 -23.7207,6.515621 -25.019449,8.41688 -49.688839,20.9055 -65.722649,28.5918 -24.29594,14.82378 -29.29692,19.82407 -39.2968702,24.82422 -20.0000098,-50 3.9803102,-25.20699 -17.18946,-72.35546906 C -20.227869,-16.2166 -44.503979,-27.433982 -61.198409,-28.092213 Z M 155.19613,213.20466 c 64.2948,-0.009 137.52149,29.81055 172.52149,64.81055 36.48336,44.72632 85.04806,111.10416 97.3203,189.9668 10.97084,70.49839 7.6797,120.03319 -12.32031,170.0332 C 395.33916,704.81435 335.43928,753.22823 266.9598,778.22615 215.91488,653.48294 123.81433,409.47215 60.910971,230.05427 c 14.13299,-5.33952 28.19161,-9.44698 41.806639,-12.03906 16.72629,-3.18441 34.47597,-4.80812 52.47852,-4.81055 z m -140.941409,38.8125 c 70.95098,178.07817 121.922839,366.82157 202.521479,540.07813 -0.0547,0.0104 -0.10937,0.0228 -0.16406,0.0332 -69.29458,13.19256 -202.856079,-22.63932 -246.042969,-63.01367 -43.18691,-40.37435 -85.164551,-65.57326 -105.488891,-160.23338 -17.36267,-80.86622 -7.36268,-150.86627 32.63733,-210.86623 24.844611,-40.3725 68.724291,-79.03672 116.537111,-105.99805 z"
         id="path37407" />
    </g>
  </g>
</svg>
